# xmcd
#
# Track frame offsets:
#	150
#	26836
#	44564
#	70537
#	100144
#
# Disc length: 1564 seconds
# Revision: 0
# Processed by: cddbd v1.5.2PL0 Copyright (c) Steve Scherf et al.
# Submitted via: dBpowerAMP V12.0
#
DISCID=3c061a05
DTITLE=Shawn Lane and Richard Bennett - Land and Harbor
DYEAR=2019
DGENRE=Country
TTITLE0=Shady Grove
TTITLE1=Charlestown
TTITLE2=Nautical Song
TTITLE3=Harmon's Den
TTITLE4=Mussel Shell
EXTD=
EXTT0=
EXTT1=
EXTT2=
EXTT3=
EXTT4=
PLAYORDER=
